<?xml version="1.0" standalone="no"?>
<!DOCTYPE svg PUBLIC "-//W3C//DTD SVG 20010904//EN"
 "http://www.w3.org/TR/2001/REC-SVG-20010904/DTD/svg10.dtd">
<svg version="1.0" xmlns="http://www.w3.org/2000/svg"
 width="300.000000pt" height="128.000000pt" viewBox="0 0 300.000000 128.000000"
 preserveAspectRatio="xMidYMid meet">
<metadata>
Created by potrace 1.10, written by Peter Selinger 2001-2011
</metadata>
<g transform="translate(0.000000,128.000000) scale(0.100000,-0.100000)"
fill="#000000" stroke="none">
<path d="M1892 1160 c-19 -5 -39 -13 -44 -18 -8 -8 -18 -6 -35 5 -23 15 -28
15 -73 -1 -42 -15 -78 -17 -297 -12 -136 2 -255 5 -263 6 -8 0 -33 0 -55 0
-22 0 -61 3 -87 6 -45 6 -46 5 -53 -25 -4 -17 -4 -50 0 -72 l7 -41 53 4 52 4
-5 -94 c-3 -53 1 -226 8 -386 10 -240 15 -296 29 -321 l17 -30 146 -5 c124 -4
149 -8 167 -24 20 -18 21 -18 58 5 33 21 54 24 171 29 179 7 168 -9 177 252 3
112 5 283 3 381 l-3 178 36 -6 c25 -4 39 -2 48 8 6 8 36 25 66 37 30 12 55 28
55 36 0 13 -52 44 -100 59 -14 4 -29 13 -35 20 -7 8 -21 10 -43 5z m98 -56
c27 -10 50 -21 50 -25 0 -4 -22 -15 -50 -24 -27 -9 -52 -21 -55 -26 -9 -14
-51 -11 -65 6 -19 23 -40 18 -40 -9 0 -14 -4 -28 -10 -31 -17 -11 -11 -25 11
-25 21 0 21 0 14 -362 -6 -298 -10 -366 -22 -380 -12 -13 -39 -17 -148 -20
-120 -3 -136 -5 -164 -26 l-31 -22 -20 20 c-19 19 -32 21 -161 19 -127 -1
-142 1 -154 18 -9 13 -16 101 -24 308 -6 160 -13 322 -16 362 -4 55 -1 72 10
76 9 4 14 20 13 46 0 40 -2 41 -34 41 -18 0 -36 -4 -39 -10 -3 -5 -17 -10 -31
-10 -22 0 -24 4 -24 49 l0 48 103 -5 c56 -2 222 -7 368 -9 231 -3 268 -2 279
12 16 19 49 20 56 0 7 -17 40 -20 49 -5 11 17 69 28 77 14 4 -6 30 -20 58 -30z"/>
<path d="M1895 1119 c-7 -19 -74 -23 -104 -7 -20 11 -25 11 -29 0 -3 -10 -79
-12 -358 -11 -205 0 -356 4 -359 10 -14 21 -25 6 -25 -31 0 -38 12 -52 25 -30
3 6 32 10 63 10 43 0 53 -3 44 -12 -16 -16 -15 -43 3 -58 21 -17 19 -30 -4
-30 -11 0 -22 -3 -24 -8 -9 -13 23 -704 32 -721 8 -13 31 -16 148 -16 100 0
144 -4 159 -14 17 -12 25 -11 54 4 24 13 67 19 159 22 99 4 129 9 139 21 9 12
12 101 12 364 0 341 0 348 -20 348 -24 0 -25 13 -3 46 13 21 14 30 5 45 -11
17 -9 19 16 19 15 0 33 -5 40 -12 7 -7 12 -8 12 -2 0 5 4 3 9 -5 7 -11 17 -11
60 4 28 9 51 20 51 25 0 5 -17 14 -37 21 -21 6 -44 16 -50 21 -9 7 -14 6 -18
-3z m-147 -68 c-9 -15 -8 -24 5 -45 9 -14 17 -30 17 -36 0 -7 -97 -10 -290
-10 -269 0 -314 4 -279 26 6 3 9 21 7 40 l-4 33 111 4 c60 1 185 4 278 5 162
2 167 1 155 -17z m50 -19 c2 -7 -6 -12 -17 -12 -21 0 -27 11 -14 24 9 9 26 2
31 -12z m-600 -14 c-7 -19 -38 -22 -38 -4 0 10 9 16 21 16 12 0 19 -5 17 -12z
m242 -101 c0 -2 -7 -18 -16 -36 -18 -36 -13 -61 12 -61 9 0 29 -10 46 -21 l30
-22 -31 -13 c-17 -7 -31 -17 -31 -21 0 -17 18 -34 37 -36 12 0 19 -6 16 -14
-5 -14 -3 -15 -71 36 -24 19 -32 32 -32 57 0 66 -85 124 -139 95 -16 -9 -21
-21 -21 -49 1 -60 52 -106 110 -100 33 3 77 -37 72 -65 -2 -10 6 -21 22 -28
l25 -12 -51 -46 c-50 -46 -52 -50 -56 -109 -2 -34 -9 -65 -14 -68 -5 -3 -20 1
-33 10 -20 13 -24 26 -30 93 -10 122 -42 171 -95 143 -19 -10 -20 -8 -20 53 0
35 -3 84 -6 109 l-6 45 36 7 c30 6 36 11 36 31 0 25 0 25 105 25 58 0 105 -2
105 -3z m247 -7 c37 0 43 -3 49 -25 5 -21 12 -25 41 -25 l36 0 -7 -227 c-5
-126 -10 -230 -13 -233 -11 -12 -168 -15 -175 -4 -4 6 -20 9 -35 6 -27 -5 -28
-4 -10 15 10 12 17 36 17 60 0 78 5 79 90 8 43 -36 83 -65 89 -65 24 0 9 30
-34 64 -75 62 -75 61 -68 116 5 47 4 49 -21 56 -41 10 -35 52 13 100 70 67 58
98 -28 75 -44 -12 -47 -11 -68 14 -13 14 -23 38 -23 52 0 25 1 26 53 19 28 -3
71 -6 94 -6z m-164 -20 c-3 -11 -9 -17 -14 -15 -10 7 -1 35 11 35 5 0 6 -9 3
-20z m-36 -12 c-3 -8 -6 -5 -6 6 -1 11 2 17 5 13 3 -3 4 -12 1 -19z m-40 -32
c-8 -8 -17 -12 -21 -9 -3 3 2 12 12 19 22 16 29 9 9 -10z m68 -14 c-3 -3 -11
0 -18 7 -9 10 -8 11 6 5 10 -3 15 -9 12 -12z m-30 -2 c3 -5 4 -10 1 -10 -3 0
-8 5 -11 10 -3 6 -4 10 -1 10 3 0 8 -4 11 -10z m69 -29 c-10 -10 -25 -16 -32
-13 -9 3 -6 9 10 17 34 19 44 17 22 -4z m-320 -193 c7 -13 17 -59 20 -103 4
-44 14 -90 22 -103 l15 -23 -53 7 c-29 4 -54 7 -55 8 -1 1 -5 41 -9 90 -5 62
-4 87 4 83 6 -5 8 0 5 13 -5 20 12 50 28 50 5 0 15 -10 23 -22z m406 -13 c0
-18 -4 -23 -15 -19 -16 6 -20 26 -8 37 13 14 23 6 23 -18z m-230 -249 c0 -3
-5 -8 -12 -12 -7 -4 -8 -3 -4 4 7 12 16 16 16 8z m92 -33 c-6 -59 -9 -62 -13
-10 -3 29 0 47 6 47 7 0 9 -15 7 -37z m155 -25 c-2 -13 -4 -5 -4 17 -1 22 1
32 4 23 2 -10 2 -28 0 -40z m-450 15 c-4 -3 -7 0 -7 7 0 7 3 10 7 7 3 -4 3
-10 0 -14z m260 -35 c-3 -8 -6 -5 -6 6 -1 11 2 17 5 13 3 -3 4 -12 1 -19z"/>
<path d="M1228 1016 c-3 -31 -1 -35 25 -40 16 -3 135 -6 263 -6 215 0 257 5
224 25 -5 3 -10 17 -10 31 l0 24 -249 0 -249 0 -4 -34z m476 -1 c5 -13 -24
-15 -219 -15 -201 0 -256 6 -212 23 6 3 105 6 218 6 175 1 208 -1 213 -14z"/>
</g>
</svg>
